<?xml version="1.0" encoding="utf-8"?>
<!-- Generator: Adobe Illustrator 21.0.0, SVG Export Plug-In . SVG Version: 6.00 Build 0)  -->
<svg version="1.1" id="Layer_1" xmlns="http://www.w3.org/2000/svg" xmlns:xlink="http://www.w3.org/1999/xlink" x="0px" y="0px"
	 viewBox="0 0 600 600" style="enable-background:new 0 0 600 600;" xml:space="preserve">
<style type="text/css">
	.st0{fill:#071531;}
</style>
<g>
	<path class="st0" d="M226,244.8v7.5c0,9.1-4.5,14.2-13.2,14.2s-13.2-5.2-13.2-14.2v-29.4c0-9.1,4.5-14.2,13.2-14.2
		s13.2,5.2,13.2,14.2v5.5h-8.4v-6.1c0-4-1.8-5.6-4.6-5.6s-4.6,1.5-4.6,5.6v30.5c0,4,1.8,5.5,4.6,5.5s4.6-1.5,4.6-5.5v-8.1h8.4V244.8
		z"/>
	<path class="st0" d="M261.8,265.9h-9l-1.5-10.2h-10.9l-1.5,10.3h-8.2l9.1-56.6h13L261.8,265.9z M241.5,247.9h8.6l-4.2-28.6h-0.2
		L241.5,247.9z"/>
	<path class="st0" d="M286,265.9c-0.7-2.2-1-4.6-0.8-6.9v-9c0-5.2-1.8-7.2-5.8-7.2h-3v23h-8.9v-56.6h13.4c9.2,0,13.2,4.3,13.2,13
		v4.4c0,5.8-1.9,9.5-5.8,11.4v0.2c4.4,1.8,5.9,6.1,5.9,12v8.7c-0.2,2.3,0.2,4.7,1,6.9H286V265.9z M276.4,217.4v17.4h3.5
		c3.3,0,5.2-1.4,5.2-6v-5.7c0-4-1.4-5.8-4.5-5.8h-4.2V217.4z"/>
	<path class="st0" d="M299,209.3h27.5v8.1h-9.3v48.5h-8.9v-48.5H299V209.3z"/>
	<path class="st0" d="M331.3,222.9c0-9.1,4.8-14.2,13.5-14.2s13.5,5.2,13.5,14.2v29.4c0,9.1-4.8,14.2-13.5,14.2s-13.5-5.2-13.5-14.2
		V222.9z M354.3,197.4l-8.2,8.8h-6l5.5-9L354.3,197.4z M340.1,252.9c0,4,1.8,5.6,4.6,5.6c2.8,0,4.6-1.5,4.6-5.6v-30.5
		c0-4-1.8-5.6-4.6-5.6c-2.8,0-4.6,1.5-4.6,5.6V252.9z"/>
	<path class="st0" d="M384.2,265.9c-0.7-2.2-1-4.6-0.8-6.9v-9c0-5.2-1.8-7.2-5.8-7.2h-3.1v23h-8.9v-56.6H379c9.2,0,13.2,4.3,13.2,13
		v4.4c0,5.8-1.9,9.5-5.8,11.4v0.2c4.4,1.8,5.9,6.1,5.9,12v8.7c-0.2,2.3,0.2,4.7,1,6.9h-9.1V265.9z M374.5,217.4v17.4h3.5
		c3.3,0,5.2-1.4,5.2-6v-5.7c0-4-1.4-5.8-4.5-5.8h-4.2V217.4z"/>
	<path class="st0" d="M399.7,209.3h8.9v56.6h-8.9V209.3z"/>
	<path class="st0" d="M415.9,222.9c0-9.1,4.8-14.2,13.5-14.2s13.5,5.2,13.5,14.2v29.4c0,9.1-4.8,14.2-13.5,14.2s-13.5-5.2-13.5-14.2
		V222.9z M424.8,252.9c0,4,1.8,5.6,4.6,5.6s4.6-1.5,4.6-5.6v-30.5c0-4-1.8-5.6-4.6-5.6c-2.8,0-4.6,1.5-4.6,5.6V252.9z"/>
	<path class="st0" d="M462.2,208.7c8.7,0,13,5.2,13,14.2v1.8h-8.4v-2.3c0-4-1.6-5.6-4.4-5.6s-4.4,1.5-4.4,5.6c0,4,1.8,7.2,7.6,12.3
		c7.4,6.6,9.8,11.2,9.8,17.7c0,9.1-4.5,14.2-13.2,14.2s-13.2-5.2-13.2-14.2v-3.5h8.4v4c0,4,1.8,5.5,4.6,5.5s4.6-1.5,4.6-5.5
		s-1.8-7.2-7.6-12.3c-7.4-6.6-9.8-11.2-9.8-17.7C449.1,213.8,453.6,208.7,462.2,208.7z"/>
	<path class="st0" d="M496.2,209.3h14.1c8.9,0,13.2,4.9,13.2,14v28.6c0,9-4.4,14-13.2,14h-14.1L496.2,209.3L496.2,209.3z
		 M505.1,217.4v40.4h5c2.8,0,4.5-1.4,4.5-5.5v-29.4c0-4-1.7-5.5-4.5-5.5H505.1z"/>
	<path class="st0" d="M539.7,233.2h12.2v8.1h-12.2v16.5h15.4v8.1h-24.3v-56.6h24.3v8.1h-15.4V233.2z"/>
	<path class="st0" d="M230.5,294.1v8.6c0,10.6-5.2,16.4-15.6,16.4H210v25h-10.4v-66.5H215C225.3,277.7,230.5,283.5,230.5,294.1z
		 M209.9,287.2v22.5h4.9c3.3,0,5.2-1.5,5.2-6.3v-10c0-4.8-1.8-6.3-5.2-6.3L209.9,287.2L209.9,287.2z"/>
	<path class="st0" d="M255.3,344.1c-0.8-2.6-1.2-5.4-0.9-8.2v-10.4c0-6.2-2.1-8.4-6.8-8.4H244v27h-10.4v-66.5h15.8
		c10.8,0,15.6,5,15.6,15.3v5.2c0,6.8-2.2,11.2-6.8,13.4v0.2c5.2,2.2,6.9,7.1,6.9,14.1v10.3c-0.2,2.7,0.2,5.5,1.1,8.1h-10.9V344.1z
		 M244,287.1v20.6h4.1c3.9,0,6.3-1.7,6.3-7.1V294c0-4.8-1.6-6.8-5.2-6.8L244,287.1z"/>
	<path class="st0" d="M269,293.6c0-10.6,5.6-16.7,15.9-16.7s15.9,6.1,15.9,16.7v34.6c0,10.6-5.6,16.7-15.9,16.7s-15.9-6.1-15.9-16.7
		V293.6z M279.4,328.9c0,4.8,2.1,6.6,5.4,6.6s5.4-1.8,5.4-6.6V293c0-4.7-2.1-6.6-5.4-6.6s-5.4,1.8-5.4,6.6V328.9z"/>
	<path class="st0" d="M302.7,277.7H335v9.5h-11v57h-10.4v-57h-10.9V277.7z"/>
	<path class="st0" d="M348.2,305.7h14.4v9.5h-14.4v19.5h18.1v9.5h-28.6v-66.5h28.6v9.5h-18.1V305.7z"/>
	<path class="st0" d="M384.9,276.9c10.2,0,15.4,6.1,15.4,16.7v2.1h-9.9v-2.8c0-4.7-1.9-6.6-5.2-6.6s-5.2,1.8-5.2,6.6s2.1,8.5,9,14.4
		c8.7,7.8,11.5,13.2,11.5,20.8c0,10.6-5.2,16.7-15.6,16.7s-15.6-6.1-15.6-16.7V324h9.9v4.7c0,4.8,2.1,6.5,5.4,6.5s5.6-1.6,5.6-6.5
		s-2.1-8.5-8.9-14.4c-8.7-7.7-11.5-13.2-11.5-20.8C369.6,283,374.8,276.9,384.9,276.9z"/>
	<path class="st0" d="M401.6,277.7h32.3v9.5H423v57h-10.4v-57h-10.9L401.6,277.7z"/>
	<path class="st0" d="M435.8,293.6c0-10.6,5.6-16.7,15.8-16.7c10.3,0,15.9,6.1,15.9,16.7v34.6c0,10.6-5.6,16.7-15.9,16.7
		s-15.8-6.1-15.8-16.7V293.6z M446.2,328.9c0,4.8,2.1,6.6,5.4,6.6s5.4-1.8,5.4-6.6V293c0-4.7-2.1-6.6-5.4-6.6s-5.4,1.8-5.4,6.6
		V328.9z"/>
	<path class="st0" d="M44.9,372.2h4.7v30.1h-4.7V372.2z"/>
	<path class="st0" d="M61.3,380.6L61.3,380.6v21.8H57v-30.1h6l4.8,18l0,0v-18H72v30.1h-4.9L61.3,380.6z"/>
	<path class="st0" d="M85.6,371.9c4.6,0,7,2.8,7,7.6v0.9H88v-1.2c0-2.1-0.9-3-2.4-3s-2.4,0.8-2.4,3c0,2.1,1,3.9,4.1,6.6
		c4,3.5,5.2,6,5.2,9.4c0,4.8-2.4,7.6-7.1,7.6s-7.1-2.8-7.1-7.6v-1.8h4.4v2.1c0,2.2,1,2.9,2.5,2.9s2.4-0.8,2.4-2.9
		c0-2.2-0.9-3.8-4.1-6.5c-4-3.5-5.2-6-5.2-9.4C78.5,374.7,80.9,371.9,85.6,371.9z"/>
	<path class="st0" d="M97.7,372.2h14.6v4.3h-4.9v25.8h-4.7v-25.8h-4.9L97.7,372.2z"/>
	<path class="st0" d="M118.2,372.2h4.7v30.1h-4.7V372.2z"/>
	<path class="st0" d="M128.8,372.2h14.6v4.3h-4.9v25.8h-4.7v-25.8h-4.9v-4.3H128.8z"/>
	<path class="st0" d="M153.9,372.2v23.2c0,2.1,1,2.9,2.6,2.9s2.4-0.8,2.4-2.9v-23.2h4.5v22.9c0,4.8-2.4,7.6-7.1,7.6
		c-4.6,0-7.1-2.8-7.1-7.6v-22.9H153.9z"/>
	<path class="st0" d="M168.9,372.2h14.6v4.3h-4.9v25.8h-4.7v-25.8h-5L168.9,372.2L168.9,372.2z"/>
	<path class="st0" d="M189.1,379.5c0-4.8,2.6-7.6,7.2-7.6s7.2,2.8,7.2,7.6v15.6c0,4.8-2.6,7.6-7.2,7.6s-7.2-2.8-7.2-7.6V379.5z
		 M193.8,395.4c0,2.2,0.9,3,2.4,3s2.4-0.8,2.4-3v-16.3c0-2.1-0.9-3-2.4-3s-2.4,0.8-2.4,3V395.4z"/>
	<path class="st0" d="M220.9,372.2h7.5c4.7,0,7.1,2.6,7.1,7.4v15.2c0,4.8-2.3,7.4-7.1,7.4h-7.5V372.2z M225.7,376.6V398h2.6
		c1.5,0,2.4-0.8,2.4-2.9v-15.6c0-2.2-0.9-2.9-2.4-2.9H225.7z"/>
	<path class="st0" d="M247,384.9h6.5v4.3H247v8.8h8.2v4.3h-13v-30.1h13v4.3H247V384.9z"/>
	<path class="st0" d="M286.4,379.7v3.9c0,4.8-2.3,7.4-7.1,7.4h-2.2v11.3h-4.7v-30.1h7C284,372.2,286.4,374.9,286.4,379.7z
		 M277.1,376.6v10.2h2.2c1.5,0,2.3-0.7,2.3-2.8v-4.5c0-2.2-0.8-2.8-2.3-2.8h-2.2V376.6z"/>
	<path class="st0" d="M302.3,402.3c-0.4-1.1-0.5-2.4-0.4-3.6v-4.9c0-2.8-0.9-3.8-3.1-3.8h-1.6v12.3h-4.7v-30.1h7.2
		c4.9,0,7,2.3,7,6.9v2.4c0.3,2.5-0.9,4.9-3.1,6.1l0,0c2.4,1,3.1,3.2,3.1,6.3v4.8c-0.1,1.2,0.1,2.5,0.5,3.6L302.3,402.3z
		 M297.1,376.6v9.2h1.9c1.8,0,2.8-0.8,2.8-3.2v-2.9c0-2.2-0.7-3.1-2.4-3.1H297.1z"/>
	<path class="st0" d="M313.1,379.5c0-4.8,2.6-7.6,7.2-7.6s7.3,2.8,7.3,7.6v15.6c0,4.8-2.6,7.6-7.2,7.6s-7.2-2.8-7.2-7.6L313.1,379.5
		z M317.9,395.4c0,2.2,0.9,3,2.4,3s2.4-0.8,2.4-3v-16.3c0-2.1-0.9-3-2.4-3s-2.4,0.8-2.4,3V395.4z"/>
	<path class="st0" d="M333,372.2h14.6v4.3h-4.9v25.8H338v-25.8h-4.9L333,372.2z"/>
	<path class="st0" d="M358.3,384.9h6.5v4.3h-6.5v8.8h8.2v4.3h-13v-30.1h13v4.3h-8.2V384.9z"/>
	<path class="st0" d="M379.7,371.9c4.6,0,7,2.8,7,7.6v0.9h-4.5v-1.2c0-2.1-0.9-3-2.4-3s-2.4,0.8-2.4,3c0,2.1,0.9,3.9,4,6.6
		c4,3.5,5.2,6,5.2,9.4c0,4.8-2.4,7.6-7.1,7.6s-7.1-2.8-7.1-7.6v-1.8h4.5v2.1c0,2.2,0.9,2.9,2.4,2.9s2.4-0.8,2.4-2.9
		c0-2.2-0.9-3.8-4-6.5c-4-3.5-5.2-6-5.2-9.4C372.6,374.7,375,371.9,379.7,371.9z"/>
	<path class="st0" d="M391.7,372.2h14.6v4.3h-4.9v25.8h-4.7v-25.8h-4.9v-4.3H391.7z"/>
	<path class="st0" d="M411.9,379.5c0-4.8,2.6-7.6,7.2-7.6s7.2,2.8,7.2,7.6v15.6c0,4.8-2.6,7.6-7.2,7.6s-7.2-2.8-7.2-7.6V379.5z
		 M416.6,395.4c0,2.2,1,3,2.5,3s2.4-0.8,2.4-3v-16.3c0-2.1-1-3-2.4-3c-1.5,0-2.5,0.8-2.5,3V395.4z"/>
	<path class="st0" d="M439.8,385.1H456v4.3h-16.2V385.1z"/>
	<path class="st0" d="M469.6,372.2h4.7v30.1h-4.7V372.2z"/>
	<path class="st0" d="M486.4,384.9h6.5v4.3h-6.5v8.8h8.2v4.3h-13v-30.1h13v4.3h-8.2V384.9z"/>
	<path class="st0" d="M515.2,379.7v3.9c0,4.8-2.3,7.4-7.1,7.4H506v11.3h-4.7v-30.1h7C512.9,372.2,515.2,374.9,515.2,379.7z
		 M506,376.6v10.2h2.2c1.5,0,2.3-0.7,2.3-2.8v-4.5c0-2.2-0.8-2.8-2.3-2.8H506V376.6z"/>
	<path class="st0" d="M519.9,372.2h14.6v4.3h-4.9v25.8h-4.7v-25.8H520L519.9,372.2L519.9,372.2z"/>
	<path class="st0" d="M554.6,379.2v1.1c0.3,2.5-0.9,4.9-3.1,6l0,0c2.5,1.1,3.9,3.7,3.5,6.4v2.4c0.4,3.5-2.1,6.7-5.6,7.1
		c-0.5,0.1-1.1,0.1-1.6,0h-7.4v-30h7.1C552.5,372.2,554.6,374.5,554.6,379.2z M545.1,376.6v7.9h1.9c1.7,0,2.8-0.8,2.8-3.2v-1.7
		c0-2.2-0.7-3.1-2.4-3.1h-2.3V376.6z M545.1,388.8v9.2h2.6c1.6,0,2.4-0.7,2.4-3v-2.6c0-2.8-0.9-3.6-3.1-3.6H545.1z"/>
	<rect x="44.9" y="356.5" class="st0" width="510.1" height="3.3"/>
	<path class="st0" d="M100.4,316.3l-27.2-61.4c28.2-10.9,32.2,21.8,32.2,21.8s27.3-35.6,55.8-67.2c-1-0.1-2-0.2-3-0.2H67
		c-12.1,0-21.9,9.8-21.9,21.9v91.1c0,12.1,9.8,21.9,21.8,21.9H158c12.1,0,21.9-9.8,21.9-21.9v-91.1c0-4.2-1.3-8.4-3.6-11.9
		L100.4,316.3z"/>
	<path class="st0" d="M510.9,303.3v-2.1c0-2.6-0.9-3.9-3-3.9H505v10.1h2.3C509.5,307.4,510.9,306.4,510.9,303.3z"/>
	<path class="st0" d="M507.6,312.9H505v11.7h3.4c2,0,3.1-0.9,3.1-3.7v-3.4C511.5,313.9,510.4,312.9,507.6,312.9z"/>
	<path class="st0" d="M532,297.3h-2.9V309h2.3c2.2,0,3.6-1,3.6-4v-3.7C535.1,298.5,534.2,297.3,532,297.3z"/>
	<path class="st0" d="M485.7,277.6v66.5H555v-66.5H485.7z M517.6,320.9c0,5.9-3.1,9-9.1,9h-9.4v-38.1h9c6.2,0,8.9,2.9,8.9,8.8v1.4
		c0,3.9-1.2,6.4-3.9,7.6l0,0c3.2,1.2,4.5,4.1,4.5,8.1V320.9z M535.8,329.9c-0.5-1.5-0.7-3.1-0.5-4.7v-6c0-3.5-1.2-4.8-3.9-4.8h-2.1
		V330h-6v-38.2h9.1c6.1,0,8.7,2.8,8.7,8.8v3c0,3.9-1.2,6.4-3.9,7.8l0,0c3,1.2,4,4.1,4,8.1v5.9c-0.1,1.6,0.1,3.1,0.7,4.6L535.8,329.9
		z"/>
</g>
</svg>
