<?xml version="1.0" encoding="utf-8"?>
<!-- Generator: Adobe Illustrator 21.0.0, SVG Export Plug-In . SVG Version: 6.00 Build 0)  -->
<svg version="1.1" id="Camada_1" xmlns="http://www.w3.org/2000/svg" xmlns:xlink="http://www.w3.org/1999/xlink" x="0px" y="0px"
	 viewBox="0 0 600 600" style="enable-background:new 0 0 600 600;" xml:space="preserve">
<style type="text/css">
	.st0{fill:#071531;}
</style>
<g>
	<path id="Caminho_32794" class="st0" d="M265.5,207.6c0-11.2,15.3-20.3,34.2-20.3s34.2,9.1,34.2,20.3s-15.3,20.3-34.2,20.3
		S265.5,218.8,265.5,207.6 M240.7,207.2c39.8,25.1,77.8,53,113.8,83.4L300,343.9c-35.6-35.5-64.8-63.2-87.4-83.3
		C225.8,233.6,235.6,215.4,240.7,207.2L240.7,207.2z M240.1,173.7c19,0,39,0.8,59.9,2.5c-38.9,18.1-76.2,39.4-111.4,63.8
		c-10.8-9-20.8-16.3-29.6-22.5C185.1,201.3,212.2,186.7,240.1,173.7L240.1,173.7z M363.8,175.5l-4.4,31.7
		c-29.4-18.2-60.8-33-93.6-44c15.9-5.7,27.2-9.4,34.1-11.1C321.8,158.2,343.2,166,363.8,175.5L363.8,175.5z M300.1,247.6
		c32.6-24.2,62.3-44.1,92.1-58c13.5,6.9,29.8,16.2,48.7,27.8c-20,14.4-39.1,29.9-57.3,46.5C357,257.6,325.4,251.4,300.1,247.6
		L300.1,247.6z"/>
	<path id="Caminho_32795" class="st0" d="M45,447.1h14.8v-25.4c5.4,0,7.4,0,9.8,8.5l4.9,16.8H90l-6.5-20.5c-2.3-7.5-4.1-10-8.7-10.5
		c7.5-1.2,12.9-8,12.5-15.6c0-11.6-8.8-16.2-19.2-16.2H45V447.1 M59.2,394.9h4.5c7.9,0,8.7,5.3,8.7,7.9c0.2,4.4-3.3,8.1-7.7,8.3
		c-0.3,0-0.7,0-1,0h-4.6L59.2,394.9L59.2,394.9z M162.9,437.1c-2.5,0.7-5.1,1-7.7,0.7c-5,0-10.7-2.9-10.7-12.1
		c0-1.7,0-12.7,10.1-12.7c2.6,0,5.2,0.1,7.7,0.4l0.7-10c-4.4-0.3-6.2-0.7-10.6-0.7c-13.9,0-21.6,9.6-21.6,22.9c0,8,3.8,22,20.6,22
		c4,0.3,8,0.1,12-0.7L162.9,437.1L162.9,437.1z M205.6,396h13.2v-11.7h-13.2V396z M428.3,384.3H415v25.6c-1.9-4.5-6.5-7.4-11.4-7.1
		c-11,0-15.3,9.7-15.3,21.4c0,13.9,5.5,23.5,15.3,23.5c5.2,0.2,9.9-2.9,11.9-7.6c0.2,3,0.3,5.3,0.5,7h12.6c-0.2-2-0.3-4.3-0.3-9.8
		L428.3,384.3L428.3,384.3z M402,425.3c0-6.9,0.5-13.5,6.4-13.5c5.4,0,6.6,6.5,6.6,13.5c0,5-1.2,12.9-6.6,12.9
		C402.4,438.2,402,429.8,402,425.3L402,425.3z M473.2,447.1h13.2v-19.5c0-6.4,0.9-13.1,8.6-13.1h4.4v-11.1h-1.9
		c-5.4-0.5-10.4,2.8-12.1,7.9c-0.3-2.6-0.4-5.3-0.5-7.9h-12.1c0.3,3,0.4,6.1,0.3,9.1L473.2,447.1L473.2,447.1z M541.8,447.1H555
		v-62.8h-13.2V447.1L541.8,447.1z M311.9,447.1h14.2v-26.3h19.8v-11h-19.8v-14.6h20.6v-11h-34.8L311.9,447.1L311.9,447.1z
		 M503,414.5c3.9-1.8,8.2-2.7,12.6-2.6c1.9,0,8.1-0.4,8.1,7.9h-4c-4.6,0-21.6,0.1-21.6,14.7c-0.4,6.9,5,12.9,11.9,13.2
		c0.5,0,1.1,0,1.6,0c5,0.3,9.6-2.3,12-6.7l0.5,6h12.1c-0.3-2.9-0.3-5.9-0.3-12.3v-15.9c0-9.7-3.5-16.1-18.8-16.1
		c-4.8,0-9.5,0.7-13.9,0.7L503,414.5L503,414.5z M523.7,428.6c0,10.6-6.7,10.8-7.9,10.8c-2.8,0.3-5.4-1.7-5.7-4.5c0-0.4,0-0.8,0-1.2
		c0-7.3,8.3-7.6,13.6-7.6L523.7,428.6L523.7,428.6z M102.1,421.5c0-2.4,0-10.7,6.8-10.7c5.5,0,6.9,5.2,6.9,10.7H102.1z M127.8,425.6
		c0-22.8-15-22.8-18.9-22.8c-12.5,0-19.4,10.6-19.4,22.4c0,13.3,6.8,22.6,22.1,22.6c4.6,0.2,9.2-0.1,13.8-0.7l-0.3-10
		c-4,1.2-8.2,1.8-12.3,1.6c-5.3,0.6-10.2-3.3-10.8-8.6c-0.1-0.5-0.1-0.9-0.1-1.4h25.7L127.8,425.6L127.8,425.6z M176.2,421.5
		c0-2.4,0-10.7,6.8-10.7c5.5,0,6.9,5.2,6.9,10.7H176.2z M201.9,425.6c0-22.8-15-22.8-18.9-22.8c-12.5,0-19.4,10.6-19.4,22.4
		c0,13.3,6.8,22.6,22.1,22.6c4.6,0.2,9.2-0.1,13.8-0.7l-0.3-10c-4,1.2-8.2,1.8-12.3,1.6c-5.3,0.6-10.2-3.3-10.8-8.6
		c-0.1-0.5-0.1-0.9-0.1-1.4h25.7L201.9,425.6L201.9,425.6z M359.9,421.5c0-2.4,0-10.7,6.8-10.7c5.5,0,6.9,5.2,6.9,10.7H359.9z
		 M385.6,425.6c0-22.8-15-22.8-18.9-22.8c-12.5,0-19.4,10.6-19.4,22.4c0,13.3,6.8,22.6,22.1,22.6c4.6,0.2,9.2-0.1,13.8-0.7l-0.3-10
		c-4,1.2-8.2,1.8-12.3,1.6c-5.3,0.6-10.2-3.3-10.8-8.6c-0.1-0.5-0.1-0.9-0.1-1.4h25.7L385.6,425.6L385.6,425.6z M444.2,421.5
		c0-2.4,0-10.7,6.8-10.7c5.5,0,6.9,5.2,6.9,10.7H444.2z M469.9,425.6c0-22.8-15-22.8-18.9-22.8c-12.5,0-19.4,10.6-19.4,22.4
		c0,13.3,6.8,22.6,22.1,22.6c4.6,0.2,9.2-0.1,13.8-0.7l-0.3-10c-4,1.2-8.2,1.8-12.3,1.6c-5.3,0.6-10.2-3.3-10.8-8.6
		c-0.1-0.5-0.1-0.9-0.1-1.4h25.7L469.9,425.6L469.9,425.6z M257.1,414.5c3.9-1.8,8.2-2.7,12.6-2.6c1.9,0,8.1-0.4,8.1,7.9h-4
		c-4.6,0-21.6,0.1-21.6,14.7c-0.4,6.9,5,12.9,11.9,13.2c0.5,0,1.1,0,1.6,0c5,0.3,9.6-2.3,12-6.7l0.5,6h12.1
		c-0.3-2.9-0.3-5.9-0.3-12.3v-15.9c0-9.7-3.5-16.1-18.8-16.1c-4.8,0-9.5,0.7-13.9,0.7L257.1,414.5L257.1,414.5z M277.8,428.6
		c0,10.6-6.7,10.8-7.9,10.8c-2.8,0.3-5.4-1.7-5.7-4.5c0-0.4,0-0.8,0-1.2c0-7.3,8.3-7.6,13.6-7.6V428.6L277.8,428.6z M205.6,447.1
		v-43.6h22.9v-9l12.9-4.1v13.1h8.6v9.3h-8.6v20c0,4.3,1.9,5.5,4.4,5.5c1.5,0,3-0.3,4.4-0.9v9.8c-3,0.6-6.1,0.8-9.2,0.7
		c-6.4,0.7-12.1-3.9-12.8-10.3c-0.1-0.9-0.1-1.7,0-2.6v-22.1h-9.3v34.4h-13.3V447.1z"/>
</g>
</svg>
