<?xml version="1.0" encoding="utf-8"?>
<!-- Generator: Adobe Illustrator 21.0.0, SVG Export Plug-In . SVG Version: 6.00 Build 0)  -->
<svg version="1.1" id="Layer_1" xmlns="http://www.w3.org/2000/svg" xmlns:xlink="http://www.w3.org/1999/xlink" x="0px" y="0px"
	 viewBox="0 0 600 600" style="enable-background:new 0 0 600 600;" xml:space="preserve">
<style type="text/css">
	.st0{fill:#071531;}
	.st1{fill:#FF0606;}
</style>
<g>
	<path class="st0" d="M409.1,45.4H190.9c-25.1,0-45.4,20.4-45.5,45.5v418.3c0,25.1,20.4,45.4,45.5,45.5h218.2
		c25.1,0,45.4-20.4,45.5-45.5V90.9C454.6,65.8,434.2,45.4,409.1,45.4z M190.9,63.6h218.2c11.5,0,21.8,7.3,25.6,18.2H165.3
		C169.1,70.9,179.4,63.6,190.9,63.6z M409.1,536.4H190.9c-11.5,0-21.8-7.3-25.6-18.2h269.4C430.9,529.1,420.6,536.4,409.1,536.4z
		 M436.4,500H163.6V100h272.8V500z"/>
	<g>
		<path class="st0" d="M300,367.1c-34.5,0-62.5,28-62.5,62.5s28,62.5,62.5,62.5s62.5-28,62.5-62.5
			C362.5,395.1,334.5,367.1,300,367.1z M300,481.7c-28.8,0-52.1-23.3-52.1-52.1s23.3-52.1,52.1-52.1s52.1,23.3,52.1,52.1
			C352.1,458.3,328.8,481.6,300,481.7z"/>
		<path class="st0" d="M285.3,444.3l-11.1-11.1l-7.4,7.4l14.7,14.7c2,2,5.3,2,7.4,0l44.2-44.2l-7.4-7.4L285.3,444.3z"/>
	</g>
	<g>
		<path class="st0" d="M231.9,222.9c-11.8,8.7-14.3,25.4-5.6,37.2c4.1,5.6,10.3,9.3,17.1,10.4c7.1,28.4,30.2,48.6,56.6,48.6
			s49.5-20.1,56.6-48.6c14.5-2.4,24.3-16,21.9-30.5c-1.1-6.9-4.9-13-10.5-17.2c4.7-25.6,1.6-45-9.2-57.3
			c-7.8-8.5-18.7-13.4-30.2-13.6c-18.4-13.9-43-16.2-63.6-5.9C235.7,160.5,224.6,186.4,231.9,222.9z M365.7,244.1
			c0,7.5-6.1,13.6-13.7,13.5c0,0-0.1,0-0.1,0c-3.5-0.4-6.6,2-7.2,5.4c-4.4,24.8-23.2,42.8-44.8,42.8s-40.4-18-44.8-42.8
			c-0.6-3.2-3.4-5.5-6.7-5.4c-0.3,0-0.5,0-0.8,0.1c-7.5,0.2-13.6-5.8-13.8-13.2c-0.2-7.5,5.8-13.6,13.2-13.8c0.2,0,0.4,0,0.6,0
			c4.4,0,8.7-0.4,13-1.5c1.6-1.2,2.5-3.1,2.5-5.1v-10.4c13-1.3,39.4-5.1,53-15.6c5.8,6.2,12.8,11,20.6,14.1V224
			c-0.1,2,0.8,3.9,2.3,5.1c4.3,1,8.7,1.5,13.1,1.4C359.7,230.6,365.8,236.7,365.7,244.1L365.7,244.1z M270.8,157.6
			c16.7-8.2,36.7-6,51.2,5.7c1.3,1.1,3,1.7,4.8,1.6c8.4-0.2,16.5,3.1,22.2,9.2c7.6,8.7,9.8,23.8,6.6,43.6c-1.1-0.1-5.4-0.4-5.6-0.4
			v-9.9c0-2.9-1.9-5.4-4.6-6.3c-9.3-2.8-17.4-8.6-23-16.6c-1.2-2-3.3-3.3-5.6-3.3h-0.1c-2.3,0-4.4,1.2-5.6,3.2
			c-5.6,9.2-35.5,15.1-54.9,16.4c-3.5,0.2-6.2,3.1-6.1,6.6v9.9c-0.2,0-4.6,0.3-5.7,0.4C239.1,188.5,247.6,169.3,270.8,157.6z"/>
		<path class="st0" d="M372.3,325.6H346v13.1h32.9c3.6,0,6.6-2.9,6.6-6.6v-39.4h-13.1V325.6z"/>
		<path class="st0" d="M372.3,154.7h13.1v-32.9c0-3.6-2.9-6.6-6.6-6.6H346v13.1h26.3V154.7z"/>
		<path class="st0" d="M227.7,128.4H254v-13.1h-32.9c-3.6,0-6.6,2.9-6.6,6.6v32.9h13.1V128.4z"/>
		<path class="st0" d="M221.1,338.7H254v-13.1h-26.3v-26.3h-13.1v32.9C214.5,335.8,217.5,338.7,221.1,338.7z"/>
	</g>
</g>
</svg>
