<svg width="174" height="87" viewBox="0 0 174 87" fill="none" xmlns="http://www.w3.org/2000/svg">
<path d="M10.2743 16.7904C13.6606 16.7904 16.4057 14.0366 16.4057 10.6395C16.4057 7.2424 13.6606 4.48853 10.2743 4.48853C6.88802 4.48853 4.14288 7.2424 4.14288 10.6395C4.14288 14.0366 6.88802 16.7904 10.2743 16.7904Z" fill="#73C4E1"/>
<path d="M16.2953 16.6242V64.3911H4.52954V28.3166L16.2953 16.6242Z" fill="#73C4E1"/>
<path d="M58.4971 16.6242C60.8724 16.6242 63.1371 17.0675 65.2362 18.0096C67.3352 18.9516 69.1581 20.1707 70.7048 21.7223C72.2514 23.2739 73.4667 25.1025 74.4057 27.2083C75.3448 29.314 75.7867 31.5306 75.7867 33.858V64.4465H64.0209V33.8025C64.0209 32.3064 63.4686 31.0318 62.419 29.979C61.3695 28.9261 60.0438 28.4274 58.5524 28.4274C57.0609 28.4274 55.7352 28.9261 54.6857 29.979C53.5809 31.0318 53.0286 32.3064 53.0286 33.8025V64.3911H41.3733V33.8025C41.3733 32.3064 40.8209 31.0318 39.7714 29.979C38.7219 28.9261 37.3962 28.4274 35.9048 28.4274C34.4133 28.4274 33.0876 28.9261 32.0381 29.979C30.9333 31.0318 30.4362 32.3064 30.4362 33.8025V64.3911H18.7257V33.8025C18.7257 31.4752 19.1676 29.2586 20.1067 27.1529C21.0457 25.0471 22.2609 23.2185 23.8076 21.6669C25.3543 20.1153 27.1771 18.8962 29.2762 17.9541C31.3752 17.0121 33.5848 16.5688 35.9048 16.5688C38.1143 16.5688 40.2133 16.9567 42.0914 17.7325C43.9695 18.5083 45.6819 19.5611 47.2286 20.8911C48.7752 19.5611 50.4876 18.5083 52.4209 17.7325C54.3543 17.0121 56.3429 16.6242 58.4971 16.6242Z" fill="#73C4E1"/>
<path d="M101.417 64.3357C98.1029 64.3357 95.0648 63.7261 92.1372 62.4516C89.2648 61.1771 86.7239 59.5146 84.5696 57.2981C82.4153 55.1369 80.7029 52.5879 79.4324 49.7064C78.1619 46.8248 77.5543 43.7216 77.5543 40.3968C77.5543 37.1274 78.1619 34.0242 79.4324 31.1427C80.7029 28.2611 82.36 25.7121 84.5696 23.5509C86.7239 21.3898 89.2648 19.672 92.1372 18.3974C95.0096 17.1229 98.1029 16.5134 101.417 16.5134C104.676 16.5134 107.77 17.1229 110.642 18.3974C113.514 19.672 116.055 21.3898 118.21 23.5509C120.364 25.7121 122.076 28.2611 123.347 31.1427C124.617 34.0242 125.225 37.1274 125.225 40.3968C125.225 43.7216 124.617 46.7694 123.347 49.7064C122.076 52.5879 120.364 55.1369 118.21 57.2981C116.055 59.4592 113.514 61.1771 110.642 62.4516C107.714 63.7261 104.676 64.3357 101.417 64.3357ZM101.417 28.5382C99.76 28.5382 98.1581 28.8707 96.7219 29.4802C95.2305 30.0898 93.96 30.9764 92.9105 32.0293C91.861 33.0822 90.9772 34.3567 90.3696 35.7974C89.7619 37.2382 89.4305 38.7898 89.4305 40.3968C89.4305 42.0592 89.7619 43.6662 90.3696 45.107C90.9772 46.6032 91.861 47.8777 92.9105 48.9306C93.96 49.9834 95.2305 50.8701 96.7219 51.4796C98.2134 52.0892 99.76 52.4216 101.417 52.4216C103.019 52.4216 104.566 52.0892 106.002 51.4796C107.438 50.8701 108.709 49.9834 109.758 48.9306C110.808 47.8777 111.691 46.6032 112.299 45.107C112.907 43.6108 113.238 42.0592 113.238 40.3968C113.238 38.7898 112.907 37.2382 112.299 35.7974C111.691 34.3567 110.808 33.0822 109.758 32.0293C108.709 30.9764 107.438 30.0898 106.002 29.4802C104.566 28.8707 103.019 28.5382 101.417 28.5382Z" fill="#73C4E1"/>
<path d="M171.128 13.9643L161.516 2.4382H121.358V4.10062H160.688L169.139 14.186L146.436 56.5223H141.63C141.354 56.079 140.857 55.8019 140.305 55.8019C139.476 55.8019 138.758 56.5223 138.758 57.3535C138.758 58.1847 139.476 58.9051 140.305 58.9051C140.857 58.9051 141.354 58.628 141.63 58.1847H147.375L171.128 13.9643Z" fill="url(#paint0_linear_82_36)"/>
<path d="M151.684 23.1076L147.872 18.5083H124.672L118.32 6.26177C118.486 6.04011 118.541 5.76304 118.541 5.43056C118.541 4.59935 117.823 3.87897 116.994 3.87897C116.166 3.87897 115.448 4.59935 115.448 5.43056C115.448 6.20636 116.055 6.87132 116.829 6.98215L123.678 20.1707H147.154L149.75 23.2739L127.49 65.0006H151.573V63.3382H130.251L151.684 23.1076Z" fill="url(#paint1_linear_82_36)"/>
<path d="M154.888 24.9363L153.396 24.1605L145.497 39.3439C144.724 39.3993 144.061 40.0643 144.061 40.8955C144.061 41.7267 144.779 42.4471 145.608 42.4471C146.436 42.4471 147.154 41.7267 147.154 40.8955C147.154 40.6185 147.099 40.3414 146.933 40.1197L154.888 24.9363Z" fill="url(#paint2_linear_82_36)"/>
<path d="M156.49 18.065C156.434 18.065 156.324 18.065 156.269 18.065L151.131 11.9694H125.39V13.6318H150.358L154.998 19.1732C154.943 19.2841 154.943 19.4503 154.943 19.6166C154.943 20.4478 155.661 21.1681 156.49 21.1681C157.318 21.1681 158.036 20.4478 158.036 19.6166C158.036 18.7299 157.318 18.065 156.49 18.065Z" fill="url(#paint3_linear_82_36)"/>
<path d="M158.589 6.76048H132.461C132.185 6.31717 131.688 6.0401 131.135 6.0401C130.307 6.0401 129.589 6.76048 129.589 7.59169C129.589 8.4229 130.307 9.14328 131.135 9.14328C131.688 9.14328 132.185 8.86621 132.461 8.4229H157.926L163.229 14.3522L142.625 53.0312L144.061 53.807L165.272 14.186L158.589 6.76048Z" fill="url(#paint4_linear_82_36)"/>
<path d="M34.7448 78.6325V79.63H35.5181V80.1841H34.7448V82.7331C34.7448 82.8994 34.8 83.0102 34.8553 83.121C34.9105 83.2319 35.021 83.2319 35.1867 83.2319C35.2419 83.2319 35.3524 83.2319 35.5181 83.1765V83.7306C35.3524 83.786 35.1315 83.786 34.9657 83.786C34.6343 83.786 34.4134 83.6752 34.2476 83.5089C34.0819 83.3427 34.0267 83.0656 34.0267 82.6777V80.1287H33.3086V79.5745H34.0267V78.5771H34.7448V78.6325Z" fill="#8095BC"/>
<path d="M39.5505 83.786C38.9981 83.786 38.5562 83.6197 38.2248 83.2318C37.8934 82.8439 37.7277 82.4006 37.7277 81.7911V81.6802C37.7277 81.2923 37.7829 80.9045 37.9486 80.572C38.1143 80.2395 38.3353 80.0178 38.6115 79.7962C38.8877 79.6299 39.1638 79.5191 39.4953 79.5191C40.0477 79.5191 40.4343 79.6853 40.7105 80.0732C40.9867 80.4611 41.1524 80.9045 41.1524 81.5694V81.8465H38.3905C38.3905 82.2344 38.501 82.5669 38.7219 82.8439C38.9429 83.0656 39.2191 83.2318 39.6058 83.2318C39.8267 83.2318 40.0477 83.1764 40.2134 83.0656C40.3791 82.9548 40.5448 82.8439 40.6553 82.6777L41.0972 83.0102C40.7658 83.5643 40.2686 83.786 39.5505 83.786ZM39.4953 80.1287C39.2191 80.1287 38.9981 80.2395 38.7772 80.4611C38.6115 80.6828 38.4458 80.9599 38.4458 81.3478H40.4896V81.2924C40.4896 80.9599 40.3791 80.6828 40.2134 80.4611C39.9924 80.2395 39.7715 80.1287 39.4953 80.1287Z" fill="#8095BC"/>
<path d="M45.1848 83.2318C45.461 83.2318 45.6267 83.1764 45.8477 83.0102C46.0686 82.8439 46.1238 82.6777 46.1791 82.456H46.8419C46.8419 82.6777 46.7315 82.8994 46.621 83.121C46.5105 83.3427 46.2896 83.5089 46.0134 83.6197C45.7372 83.7306 45.5162 83.786 45.24 83.786C44.6877 83.786 44.2457 83.6197 43.9143 83.2318C43.5829 82.8439 43.4172 82.3452 43.4172 81.6802V81.5694C43.4172 81.1815 43.4724 80.7936 43.6381 80.5166C43.8038 80.2395 43.9696 79.9624 44.2457 79.7962C44.5219 79.6299 44.8534 79.5191 45.24 79.5191C45.6819 79.5191 46.0686 79.6299 46.4 79.907C46.7315 80.1841 46.8419 80.5166 46.8972 80.9599H46.2343C46.2343 80.6828 46.1238 80.4611 45.9581 80.2949C45.7924 80.1287 45.5715 80.0178 45.2953 80.0178C44.9638 80.0178 44.6877 80.1287 44.4667 80.4057C44.2457 80.6828 44.1905 81.0153 44.1905 81.514V81.6248C44.1905 82.1236 44.301 82.456 44.4667 82.7331C44.6324 83.0102 44.7981 83.2318 45.1848 83.2318Z" fill="#8095BC"/>
<path d="M49.7695 79.6299V80.1287C50.101 79.7408 50.4876 79.5191 50.9848 79.5191C51.8686 79.5191 52.3105 80.0178 52.3105 80.9599V83.6752H51.5924V80.9599C51.5924 80.6828 51.5372 80.4611 51.3715 80.2949C51.2057 80.1287 51.04 80.0732 50.7638 80.0732C50.5429 80.0732 50.3219 80.1287 50.1562 80.2395C49.9905 80.3503 49.8248 80.5166 49.7695 80.7382V83.6752H49.0515V79.5745H49.7695V79.6299Z" fill="#8095BC"/>
<path d="M54.741 81.6248C54.741 81.2369 54.7962 80.849 54.9619 80.5166C55.1276 80.1841 55.3486 79.9624 55.6248 79.7962C55.901 79.6299 56.2324 79.5191 56.5638 79.5191C57.1162 79.5191 57.5581 79.6853 57.8895 80.0732C58.221 80.4611 58.3867 80.9599 58.3867 81.6248V81.6802C58.3867 82.0681 58.3314 82.456 58.1657 82.7331C58 83.0656 57.7791 83.2873 57.5029 83.4535C57.2267 83.6197 56.8953 83.7306 56.5086 83.7306C55.9562 83.7306 55.5143 83.5643 55.1829 83.1764C54.8514 82.7885 54.741 82.3452 54.741 81.6248ZM55.4591 81.7357C55.4591 82.179 55.5695 82.5669 55.7905 82.8439C56.0114 83.121 56.2876 83.2318 56.6191 83.2318C56.9505 83.2318 57.2819 83.0656 57.4476 82.7885C57.6686 82.5115 57.7791 82.1236 57.7791 81.6248C57.7791 81.1815 57.6686 80.7936 57.4476 80.5166C57.2267 80.2395 56.9505 80.0732 56.6191 80.0732C56.2876 80.0732 56.0114 80.1841 55.7905 80.4611C55.5695 80.7382 55.4591 81.2369 55.4591 81.7357Z" fill="#8095BC"/>
<path d="M61.6457 83.7306H60.9276V77.9121H61.6457V83.7306Z" fill="#8095BC"/>
<path d="M64.1314 81.6248C64.1314 81.2369 64.1867 80.849 64.3524 80.5166C64.5181 80.1841 64.7391 79.9624 65.0152 79.7962C65.2914 79.6299 65.6229 79.5191 65.9543 79.5191C66.5067 79.5191 66.9486 79.6853 67.28 80.0732C67.6114 80.4611 67.7772 80.9599 67.7772 81.6248V81.6802C67.7772 82.0681 67.7219 82.456 67.5562 82.7331C67.3905 83.0656 67.1695 83.2873 66.8933 83.4535C66.6172 83.6197 66.2857 83.7306 65.8991 83.7306C65.3467 83.7306 64.9048 83.5643 64.5733 83.1764C64.2419 82.7885 64.1314 82.3452 64.1314 81.6248ZM64.8495 81.7357C64.8495 82.179 64.96 82.5669 65.181 82.8439C65.4019 83.121 65.6781 83.2318 66.0095 83.2318C66.341 83.2318 66.6724 83.0656 66.8381 82.7885C67.0591 82.5115 67.1695 82.1236 67.1695 81.6248C67.1695 81.1815 67.0591 80.7936 66.8381 80.5166C66.6172 80.2395 66.341 80.0732 66.0095 80.0732C65.6781 80.0732 65.4019 80.1841 65.181 80.4611C64.96 80.7382 64.8495 81.2369 64.8495 81.7357Z" fill="#8095BC"/>
<path d="M70.0972 81.6248C70.0972 80.9599 70.2629 80.4611 70.5391 80.0732C70.8153 79.6853 71.2019 79.5191 71.6991 79.5191C72.1962 79.5191 72.5829 79.6853 72.8591 80.0732L72.9143 79.6299H73.5772V83.6197C73.5772 84.1739 73.4115 84.5618 73.08 84.8943C72.7486 85.2267 72.3619 85.3376 71.8095 85.3376C71.5334 85.3376 71.2019 85.2822 70.9257 85.1713C70.6495 85.0605 70.4286 84.8943 70.2629 84.6726L70.6495 84.2293C70.9257 84.6172 71.3124 84.7834 71.7543 84.7834C72.0857 84.7834 72.3619 84.6726 72.5276 84.5064C72.6934 84.3401 72.8038 84.0631 72.8038 83.6752V83.3427C72.5276 83.6752 72.141 83.8414 71.6438 83.8414C71.1467 83.8414 70.76 83.6752 70.4838 83.2873C70.2076 82.8994 70.0972 82.2898 70.0972 81.6248ZM70.8153 81.7357C70.8153 82.179 70.9257 82.5669 71.0915 82.8439C71.2572 83.121 71.5334 83.2318 71.8648 83.2318C72.3067 83.2318 72.6381 83.0102 72.8591 82.6223V80.7382C72.6381 80.3503 72.3067 80.1287 71.92 80.1287C71.5886 80.1287 71.3124 80.2395 71.1467 80.5166C70.981 80.7936 70.8153 81.1815 70.8153 81.7357Z" fill="#8095BC"/>
<path d="M76.1733 78.5217C76.1733 78.4108 76.2286 78.3 76.2838 78.2446C76.3391 78.1892 76.4495 78.1338 76.6152 78.1338C76.781 78.1338 76.8362 78.1892 76.9467 78.2446C77.0572 78.3 77.0572 78.4108 77.0572 78.5217C77.0572 78.6325 77.0019 78.7433 76.9467 78.7987C76.8914 78.8541 76.781 78.9096 76.6152 78.9096C76.4495 78.9096 76.3943 78.8541 76.2838 78.7987C76.1733 78.7433 76.1733 78.6325 76.1733 78.5217ZM76.8914 83.7306H76.2286V79.6299H76.9467V83.7306H76.8914Z" fill="#8095BC"/>
<path d="M82.0838 83.7306C82.0286 83.6752 82.0286 83.5089 81.9734 83.2873C81.6419 83.6197 81.2553 83.786 80.8134 83.786C80.4267 83.786 80.0953 83.6752 79.8191 83.4535C79.5429 83.2318 79.4324 82.9548 79.4324 82.5669C79.4324 82.1236 79.5981 81.7911 79.9295 81.5694C80.261 81.3478 80.7029 81.2369 81.3105 81.2369H81.9734V80.9045C81.9734 80.6828 81.9181 80.4611 81.7524 80.2949C81.5867 80.1287 81.3657 80.0732 81.0895 80.0732C80.8134 80.0732 80.6476 80.1287 80.4819 80.2395C80.3162 80.3503 80.2057 80.5166 80.2057 80.6828H79.5429C79.5429 80.4611 79.5981 80.2949 79.7638 80.0732C79.9295 79.907 80.0953 79.7408 80.3714 79.6299C80.6476 79.5191 80.8686 79.4637 81.2 79.4637C81.6972 79.4637 82.0286 79.5745 82.3048 79.7962C82.581 80.0178 82.6915 80.3503 82.7467 80.7936V82.6777C82.7467 83.0656 82.8019 83.3427 82.9124 83.5643V83.6197H82.0838V83.7306ZM80.9238 83.1764C81.1448 83.1764 81.3657 83.121 81.5315 83.0102C81.6972 82.8994 81.8629 82.7331 81.9734 82.5669V81.7357H81.421C80.5924 81.7357 80.1505 82.0127 80.1505 82.5115C80.1505 82.7331 80.2057 82.8994 80.3714 83.0102C80.5372 83.121 80.7029 83.1764 80.9238 83.1764Z" fill="#8095BC"/>
<path d="M88.7676 78.5217C88.7676 78.4108 88.8229 78.3 88.8781 78.2446C88.9334 78.1892 89.0438 78.1338 89.2095 78.1338C89.3753 78.1338 89.4305 78.1892 89.541 78.2446C89.5962 78.3 89.6515 78.4108 89.6515 78.5217C89.6515 78.6325 89.5962 78.7433 89.541 78.7987C89.4857 78.8541 89.3753 78.9096 89.2095 78.9096C89.0438 78.9096 88.9886 78.8541 88.8781 78.7987C88.8229 78.7433 88.7676 78.6325 88.7676 78.5217ZM89.541 83.7306H88.8229V79.6299H89.541V83.7306Z" fill="#8095BC"/>
<path d="M92.8553 79.6299V80.0732C93.1315 79.7408 93.5734 79.5191 94.0705 79.5191C94.6229 79.5191 95.0096 79.7408 95.2305 80.1841C95.341 79.9624 95.5619 79.8516 95.7829 79.6853C96.0038 79.5745 96.28 79.5191 96.5562 79.5191C97.44 79.5191 97.8819 80.0178 97.9372 80.9599V83.7306H97.2191V81.0153C97.2191 80.7382 97.1638 80.5166 96.9981 80.3503C96.8877 80.1841 96.6667 80.1287 96.3353 80.1287C96.0591 80.1287 95.8381 80.1841 95.6724 80.3503C95.5067 80.5166 95.3962 80.7382 95.3962 80.9599V83.6752H94.6781V81.0153C94.6781 80.4057 94.4019 80.1287 93.7943 80.1287C93.3524 80.1287 93.021 80.3503 92.8553 80.7382V83.7306H92.1372V79.6299H92.8553Z" fill="#8095BC"/>
<path d="M100.368 81.6248C100.368 81.2369 100.423 80.849 100.589 80.5166C100.754 80.1841 100.975 79.9624 101.251 79.7962C101.528 79.6299 101.859 79.5191 102.191 79.5191C102.743 79.5191 103.185 79.6853 103.516 80.0732C103.848 80.4611 104.013 80.9599 104.013 81.6248V81.6802C104.013 82.0681 103.958 82.456 103.792 82.7331C103.627 83.0656 103.406 83.2873 103.13 83.4535C102.853 83.6197 102.522 83.7306 102.135 83.7306C101.583 83.7306 101.141 83.5643 100.81 83.1764C100.533 82.8439 100.368 82.3452 100.368 81.6248ZM101.031 81.7357C101.031 82.179 101.141 82.5669 101.362 82.8439C101.583 83.121 101.859 83.2318 102.191 83.2318C102.522 83.2318 102.853 83.0656 103.019 82.7885C103.24 82.5115 103.351 82.1236 103.351 81.6248C103.351 81.1815 103.24 80.7936 103.019 80.5166C102.798 80.2395 102.522 80.0732 102.191 80.0732C101.859 80.0732 101.583 80.1841 101.362 80.4611C101.141 80.7382 101.031 81.2369 101.031 81.7357Z" fill="#8095BC"/>
<path d="M109.979 81.7357C109.979 82.3452 109.813 82.844 109.537 83.2318C109.261 83.6197 108.874 83.786 108.377 83.786C107.88 83.786 107.438 83.6197 107.162 83.2318L107.107 83.7306H106.444V77.9121H107.162V80.0733C107.438 79.7408 107.825 79.5191 108.322 79.5191C108.819 79.5191 109.206 79.6854 109.482 80.0733C109.758 80.4612 109.924 80.9599 109.924 81.6248V81.7357H109.979ZM109.261 81.6248C109.261 81.1261 109.151 80.7936 108.985 80.5166C108.819 80.2395 108.543 80.1287 108.211 80.1287C107.77 80.1287 107.438 80.3503 107.217 80.7936V82.5669C107.438 83.0102 107.77 83.2318 108.211 83.2318C108.543 83.2318 108.819 83.121 108.985 82.844C109.151 82.5669 109.261 82.179 109.261 81.6248Z" fill="#8095BC"/>
<path d="M112.41 78.5217C112.41 78.4108 112.465 78.3 112.52 78.2446C112.575 78.1892 112.686 78.1338 112.851 78.1338C113.017 78.1338 113.072 78.1892 113.183 78.2446C113.293 78.3 113.293 78.4108 113.293 78.5217C113.293 78.6325 113.238 78.7433 113.183 78.7987C113.128 78.8541 113.017 78.9096 112.851 78.9096C112.686 78.9096 112.63 78.8541 112.52 78.7987C112.41 78.7433 112.41 78.6325 112.41 78.5217ZM113.128 83.7306H112.41V79.6299H113.128V83.7306Z" fill="#8095BC"/>
<path d="M116.552 83.7306H115.834V77.9121H116.552V83.7306Z" fill="#8095BC"/>
<path d="M119.204 78.5217C119.204 78.4108 119.259 78.3 119.314 78.2446C119.37 78.1892 119.48 78.1338 119.646 78.1338C119.811 78.1338 119.867 78.1892 119.977 78.2446C120.088 78.3 120.088 78.4108 120.088 78.5217C120.088 78.6325 120.032 78.7433 119.977 78.7987C119.922 78.8541 119.811 78.9096 119.646 78.9096C119.48 78.9096 119.425 78.8541 119.314 78.7987C119.259 78.7433 119.204 78.6325 119.204 78.5217ZM119.977 83.7306H119.314V79.6299H120.032V83.7306H119.977Z" fill="#8095BC"/>
<path d="M125.17 83.7306C125.114 83.6752 125.114 83.5089 125.059 83.2873C124.728 83.6198 124.341 83.786 123.899 83.786C123.512 83.786 123.181 83.6752 122.905 83.4535C122.629 83.2319 122.518 82.9548 122.518 82.5669C122.518 82.1236 122.684 81.7911 123.015 81.5694C123.347 81.3478 123.789 81.2369 124.396 81.2369H125.059V80.9045C125.059 80.6828 125.004 80.4611 124.838 80.2949C124.672 80.1287 124.451 80.0733 124.175 80.0733C123.899 80.0733 123.733 80.1287 123.568 80.2395C123.402 80.3503 123.291 80.5166 123.291 80.6828H122.629C122.629 80.4612 122.684 80.2949 122.85 80.0733C123.015 79.907 123.181 79.7408 123.457 79.6299C123.678 79.5191 123.954 79.4637 124.286 79.4637C124.783 79.4637 125.114 79.5745 125.391 79.7962C125.667 80.0178 125.777 80.3503 125.832 80.7936V82.6777C125.832 83.0656 125.888 83.3427 125.998 83.5643V83.6197H125.17V83.7306ZM124.01 83.1764C124.231 83.1764 124.451 83.121 124.617 83.0102C124.783 82.8994 124.949 82.7331 125.059 82.5669V81.7357H124.507C123.678 81.7357 123.236 82.0127 123.236 82.5115C123.236 82.7331 123.291 82.8994 123.457 83.0102C123.623 83.121 123.789 83.1764 124.01 83.1764ZM124.672 77.9121H125.501L124.507 79.0204H123.954L124.672 77.9121Z" fill="#8095BC"/>
<path d="M130.362 80.2395C130.251 80.2395 130.141 80.2395 130.03 80.2395C129.589 80.2395 129.257 80.4612 129.091 80.8491V83.786H128.373V79.6854H129.036V80.1841C129.257 79.7962 129.589 79.6299 130.03 79.6299C130.141 79.6299 130.251 79.6299 130.362 79.6854V80.2395Z" fill="#8095BC"/>
<path d="M132.571 78.5217C132.571 78.4108 132.627 78.3 132.682 78.2446C132.737 78.1892 132.848 78.1338 133.013 78.1338C133.179 78.1338 133.234 78.1892 133.345 78.2446C133.455 78.3 133.455 78.4108 133.455 78.5217C133.455 78.6325 133.4 78.7433 133.345 78.7987C133.29 78.8541 133.179 78.9096 133.013 78.9096C132.848 78.9096 132.792 78.8541 132.682 78.7987C132.627 78.7433 132.571 78.6325 132.571 78.5217ZM133.345 83.7306H132.627V79.6299H133.345V83.7306Z" fill="#8095BC"/>
<path d="M138.537 83.7306C138.482 83.6752 138.482 83.5089 138.427 83.2873C138.095 83.6197 137.709 83.786 137.267 83.786C136.88 83.786 136.549 83.6752 136.272 83.4535C135.996 83.2318 135.886 82.9548 135.886 82.5669C135.886 82.1236 136.051 81.7911 136.383 81.5694C136.714 81.3478 137.156 81.2369 137.764 81.2369H138.427V80.9045C138.427 80.6828 138.371 80.4611 138.206 80.2949C138.04 80.1287 137.819 80.0732 137.543 80.0732C137.267 80.0732 137.101 80.1287 136.935 80.2395C136.77 80.3503 136.659 80.5166 136.659 80.6828H135.941C135.941 80.4611 135.996 80.2949 136.162 80.0732C136.328 79.907 136.493 79.7408 136.77 79.6299C136.991 79.5191 137.267 79.4637 137.598 79.4637C138.095 79.4637 138.427 79.5745 138.703 79.7962C138.979 80.0178 139.09 80.3503 139.145 80.7936V82.6777C139.145 83.0656 139.2 83.3427 139.311 83.5643V83.6197H138.537V83.7306ZM137.377 83.1764C137.598 83.1764 137.819 83.121 137.985 83.0102C138.151 82.8994 138.316 82.7331 138.427 82.5669V81.7357H137.874C137.046 81.7357 136.604 82.0127 136.604 82.5115C136.604 82.7331 136.659 82.8994 136.825 83.0102C136.991 83.121 137.101 83.1764 137.377 83.1764Z" fill="#8095BC"/>
<defs>
<linearGradient id="paint0_linear_82_36" x1="121.376" y1="30.671" x2="171.151" y2="30.671" gradientUnits="userSpaceOnUse">
<stop stop-color="#77BA89"/>
<stop offset="0.1982" stop-color="#4DB5BB"/>
<stop offset="0.405" stop-color="#47ADD1"/>
<stop offset="0.5939" stop-color="#4B77B5"/>
<stop offset="0.8715" stop-color="#2B5BA3"/>
<stop offset="1" stop-color="#2B5BA3"/>
</linearGradient>
<linearGradient id="paint1_linear_82_36" x1="115.461" y1="34.4744" x2="151.687" y2="34.4744" gradientUnits="userSpaceOnUse">
<stop stop-color="#77BA89"/>
<stop offset="0.1982" stop-color="#4DB5BB"/>
<stop offset="0.405" stop-color="#47ADD1"/>
<stop offset="0.5939" stop-color="#4B77B5"/>
<stop offset="0.8715" stop-color="#2B5BA3"/>
<stop offset="1" stop-color="#2B5BA3"/>
</linearGradient>
<linearGradient id="paint2_linear_82_36" x1="144.104" y1="33.2988" x2="154.863" y2="33.2988" gradientUnits="userSpaceOnUse">
<stop stop-color="#77BA89"/>
<stop offset="0.1982" stop-color="#4DB5BB"/>
<stop offset="0.405" stop-color="#47ADD1"/>
<stop offset="0.5939" stop-color="#4B77B5"/>
<stop offset="0.8715" stop-color="#2B5BA3"/>
<stop offset="1" stop-color="#2B5BA3"/>
</linearGradient>
<linearGradient id="paint3_linear_82_36" x1="125.405" y1="16.5462" x2="158.01" y2="16.5462" gradientUnits="userSpaceOnUse">
<stop stop-color="#77BA89"/>
<stop offset="0.1982" stop-color="#4DB5BB"/>
<stop offset="0.405" stop-color="#47ADD1"/>
<stop offset="0.5939" stop-color="#4B77B5"/>
<stop offset="0.8715" stop-color="#2B5BA3"/>
<stop offset="1" stop-color="#2B5BA3"/>
</linearGradient>
<linearGradient id="paint4_linear_82_36" x1="129.625" y1="29.9486" x2="165.299" y2="29.9486" gradientUnits="userSpaceOnUse">
<stop stop-color="#77BA89"/>
<stop offset="0.1982" stop-color="#4DB5BB"/>
<stop offset="0.405" stop-color="#47ADD1"/>
<stop offset="0.5939" stop-color="#4B77B5"/>
<stop offset="0.8715" stop-color="#2B5BA3"/>
<stop offset="1" stop-color="#2B5BA3"/>
</linearGradient>
</defs>
</svg>
